# Blender v2.83.0 OBJ File: ''
# www.blender.org
mtllib box.mtl
o Cube
v 1.000000 1.000000 -1.000000
v 1.000000 -1.000000 -1.000000
v 1.000000 1.000000 1.000000
v 1.000000 -1.000000 1.000000
v -1.000000 1.000000 -1.000000
v -1.000000 -1.000000 -1.000000
v -1.000000 1.000000 1.000000
v -1.000000 -1.000000 1.000000
vt -0.000342 0.998290
vt -0.000342 -0.000099
vt 0.998048 -0.000099
vt 0.998047 0.998290
vt 1.004322 -0.001870
vt 1.004251 1.006173
vt -0.003792 1.006102
vt -0.003721 -0.001941
vt -0.013286 1.001640
vt -0.013286 -0.013286
vt 1.001640 -0.013286
vt 1.001640 1.001640
vt 1.002258 -0.002458
vt 1.002258 0.999677
vt 0.000123 0.999677
vt 0.000123 -0.002458
vt 0.001919 0.998081
vt 0.001919 0.000111
vt 0.999889 0.000111
vt 0.999889 0.998081
vt 1.001341 -0.000661
vt 0.997881 1.006017
vt -0.008797 1.002557
vt -0.005337 -0.004122
vn 0.0000 1.0000 0.0000
vn 0.0000 0.0000 1.0000
vn -1.0000 0.0000 0.0000
vn 0.0000 -1.0000 0.0000
vn 1.0000 0.0000 0.0000
vn 0.0000 0.0000 -1.0000
usemtl diffuse.001
s off
f 1/1/1 5/2/1 7/3/1 3/4/1
f 4/5/2 3/6/2 7/7/2 8/8/2
f 8/9/3 7/10/3 5/11/3 6/12/3
f 6/13/4 2/14/4 4/15/4 8/16/4
f 2/17/5 1/18/5 3/19/5 4/20/5
f 6/21/6 5/22/6 1/23/6 2/24/6
